<svg width="70" height="14" viewBox="0 0 70 14" fill="none" xmlns="http://www.w3.org/2000/svg">
<path d="M6.55163 0.908494C6.73504 0.536871 7.26496 0.53687 7.44837 0.908493L8.94091 3.93272C9.01374 4.08029 9.15453 4.18258 9.31738 4.20624L12.6548 4.6912C13.0649 4.75079 13.2287 5.25478 12.9319 5.54404L10.5169 7.89808C10.3991 8.01294 10.3453 8.17844 10.3731 8.34064L10.9432 11.6646C11.0133 12.073 10.5846 12.3845 10.2178 12.1917L7.23267 10.6223C7.08701 10.5457 6.91299 10.5457 6.76733 10.6223L3.78224 12.1917C3.41543 12.3845 2.98671 12.073 3.05676 11.6646L3.62687 8.34064C3.65468 8.17844 3.60091 8.01294 3.48307 7.89808L1.06808 5.54404C0.771321 5.25478 0.935076 4.75079 1.34519 4.6912L4.68262 4.20624C4.84547 4.18258 4.98626 4.08029 5.05909 3.93272L6.55163 0.908494Z" fill="#FBCC42"/>
<path d="M34.5516 0.908494C34.735 0.536871 35.265 0.53687 35.4484 0.908493L36.9409 3.93272C37.0137 4.08029 37.1545 4.18258 37.3174 4.20624L40.6548 4.6912C41.0649 4.75079 41.2287 5.25478 40.9319 5.54404L38.5169 7.89808C38.3991 8.01294 38.3453 8.17844 38.3731 8.34064L38.9432 11.6646C39.0133 12.073 38.5846 12.3845 38.2178 12.1917L35.2327 10.6223C35.087 10.5457 34.913 10.5457 34.7673 10.6223L31.7822 12.1917C31.4154 12.3845 30.9867 12.073 31.0568 11.6646L31.6269 8.34064C31.6547 8.17844 31.6009 8.01294 31.4831 7.89808L29.0681 5.54404C28.7713 5.25478 28.9351 4.75079 29.3452 4.6912L32.6826 4.20624C32.8455 4.18258 32.9863 4.08029 33.0591 3.93272L34.5516 0.908494Z" fill="#FBCC42"/>
<path d="M20.5516 0.908494C20.735 0.536871 21.265 0.53687 21.4484 0.908493L22.9409 3.93272C23.0137 4.08029 23.1545 4.18258 23.3174 4.20624L26.6548 4.6912C27.0649 4.75079 27.2287 5.25478 26.9319 5.54404L24.5169 7.89808C24.3991 8.01294 24.3453 8.17844 24.3731 8.34064L24.9432 11.6646C25.0133 12.073 24.5846 12.3845 24.2178 12.1917L21.2327 10.6223C21.087 10.5457 20.913 10.5457 20.7673 10.6223L17.7822 12.1917C17.4154 12.3845 16.9867 12.073 17.0568 11.6646L17.6269 8.34064C17.6547 8.17844 17.6009 8.01294 17.4831 7.89808L15.0681 5.54404C14.7713 5.25478 14.9351 4.75079 15.3452 4.6912L18.6826 4.20624C18.8455 4.18258 18.9863 4.08029 19.0591 3.93272L20.5516 0.908494Z" fill="#FBCC42"/>
<path d="M48.5516 0.908494C48.735 0.536871 49.265 0.53687 49.4484 0.908493L50.9409 3.93272C51.0137 4.08029 51.1545 4.18258 51.3174 4.20624L54.6548 4.6912C55.0649 4.75079 55.2287 5.25478 54.9319 5.54404L52.5169 7.89808C52.3991 8.01294 52.3453 8.17844 52.3731 8.34064L52.9432 11.6646C53.0133 12.073 52.5846 12.3845 52.2178 12.1917L49.2327 10.6223C49.087 10.5457 48.913 10.5457 48.7673 10.6223L45.7822 12.1917C45.4154 12.3845 44.9867 12.073 45.0568 11.6646L45.6269 8.34064C45.6547 8.17844 45.6009 8.01294 45.4831 7.89808L43.0681 5.54404C42.7713 5.25478 42.9351 4.75079 43.3452 4.6912L46.6826 4.20624C46.8455 4.18258 46.9863 4.08029 47.0591 3.93272L48.5516 0.908494Z" fill="#FBCC42"/>
<path d="M63 1.12978L64.4925 4.154C64.6382 4.44915 64.9198 4.65372 65.2455 4.70104L68.5829 5.186L66.1679 7.54003C65.9322 7.76977 65.8247 8.10077 65.8803 8.42517L66.4504 11.7491L63.4653 10.1798C63.174 10.0266 62.826 10.0266 62.5347 10.1798L59.5496 11.7491L60.1197 8.42516C60.1753 8.10077 60.0678 7.76977 59.8321 7.54003L57.4171 5.186L60.7545 4.70104C61.0802 4.65372 61.3618 4.44915 61.5075 4.154L63 1.12978Z" stroke="#FBCC42"/>
</svg>
